<mxfile host="65bd71144e">
    <diagram id="naK1cKPiy5bsRtWbkxW5" name="Page-1">
        <mxGraphModel dx="3553" dy="2580" grid="1" gridSize="10" guides="1" tooltips="1" connect="1" arrows="1" fold="1" page="1" pageScale="1" pageWidth="1169" pageHeight="1654" math="0" shadow="0">
            <root>
                <mxCell id="0"/>
                <mxCell id="1" parent="0"/>
                <mxCell id="24" value="" style="rounded=1;whiteSpace=wrap;html=1;fillColor=none;dashed=1;" parent="1" vertex="1">
                    <mxGeometry x="-709" y="-1650" width="330" height="290" as="geometry"/>
                </mxCell>
                <mxCell id="4" value="" style="shape=image;verticalLabelPosition=bottom;labelBackgroundColor=default;verticalAlign=top;aspect=fixed;imageAspect=0;image=https://miro.medium.com/1*XON7HtEQCgYqJ5FChk8WBQ.png;" parent="1" vertex="1">
                    <mxGeometry x="-651" y="-1460" width="214.28" height="90" as="geometry"/>
                </mxCell>
                <mxCell id="12" value="" style="shape=image;verticalLabelPosition=bottom;labelBackgroundColor=default;verticalAlign=top;aspect=fixed;imageAspect=0;image=data:image/png,iVBORw0KGgoAAAANSUhEUgAAAK0AAAC5CAIAAADViiiZAAAgAElEQVR4Ae2deVzUxh7Akywgp4AthyiXPK+CoHhUKx5ogUpBsFhLq1QUvIpiHx88QMtrtaIWLEVrERHQankIFUHriQiKF4KCcigqoFy7iyx7J/++vua5b7ubhOxuko26+UPD7OQ3v/n9vplMJr+ZARDDYbAAggAGIxgsgBg4MECAWsDQHhhI+K8FDBwYODBwYGDglQUM7cErS7zd/xs4eLv9/6r2Bg5eWeLt/t/Awdvt/1e1N3DwyhJv9/9vMgdyuVwgEHR2dra0tNTW1l67du3ixYtnz54tKSkpKioqKCg4depUSUlJWVnZ5cuXr1+/fu/evUePHnV1dQ0MDLxtVLxpHPT19TU3N1+6dOnQoUPJyclfffXVsmXLQkND586dO3ny5HHjxo0aNcrZ2dnBwcHW1tbJycnZ2dnNzc3T03PKlCnz589fuHBhVFRUXFzc9u3bjxw5UllZ2draKhQK33gs3gQOJBJJS0tLYWHhunXrQkJCZs+e7eXlZW9vb2xsDGh7GBkZDR8+3MfHZ+7cuWFhYcnJyWVlZe3t7W8qEK83B48fPz5w4EBwcPC4ceOcnJyGDBmird8Huc7S0tLZ2dnT0zM0NDQvL+/NA+K15IDP5xcVFQUEBFhbW5uamkIQNIgbqfsZgiAzM7N33303MjKyvLxcLBa/GS3Ea8MBDMNCobCpqSklJcXV1ZU6z+okaezYsYcOHXrx4oVIJIJh+PVl4jXgAIbh7u7uy5cvr1q1Sien0XaxhYXFli1bqquruVyuXC5/HWlgNQcwDHd2dhYXF8fGxtLmRMoEjxw5cuPGjZcuXeLz+a8dCuzlAO0ExMTEvPvuu5T5in5Bnp6eGzZsqKyslMlkrxENbOQAhuH79+9v2LDBw8MDBEH6fUd9Cb6+vhs2bHj69OnrggIbOcjOzvb29jY3N6fePwxKHDJkiL+/f2FhoUgkYj8N7OKgpaVl9uzZQ4cOZdBfNBYFQZCNjU1MTExbWxvLUWALB3K5vLCw0MnJiUa36E+0n5/fnTt32Nxj0D8Hcrm8vb1969atw4YN05+naC/Z1tY2Nze3r6+PnQ2DnjmQyWR37tz59NNPafcDOwrYvHlzc3MzC1HQMwelpaXz5s1jh4+Y0AIEwfDw8OrqarYNPuqTg2PHjnl6ejJhfjaVYWJiMmfOnLNnz7Kqu6AfDmQyWVpamrOzM5scxJwuxsbGEyZM+Pe//y2RSFjyjNADB1KpdOfOnfb29swZnn0lgSBoZ2dXUFAglUrZgALTHMhksp07d1pbW7PPNXrQiMPhXLlyhQ19BUY5EAqFWVlZw4cP14PJWVzk7du39f6VkjkOxGJxQUHBqFGjWOwR/aj2zjvvXLt2Tb+tAkMcwDB87ty5t/DtgCRZvr6+d+7c0WNHgSEOGhoapk2bRtIob2E2Y2PjsLCwhw8f6gsFJjjo7Oz08/N7C72rUZUtLS2/+uqrzs5OvaBAOwdSqXTx4sUaWYSBzB4eHtHR0UlJSbGxsRYWFgyUSKYIa2vr1NRUvcyioZ2DjIwMtn1HDg8Pb25uHhgYEIlEQqGwtbU1JCSEjJ8YyOPm5nbx4kXmmwQaOYBh+Nq1a+PGjWPAfCSLAEFw1qxZra2tKoaura319vYmKYTubKGhoU+ePFHRkO4/aeSgo6ODPfcZ6jxra+uMjAx1mwoEgl27duky/4laOL777juGo5jo4mBgYCA9PZ1tIabjx4/HCw0qLy/38vKi1p1aS7OwsKioqFDnlb4UWjiAYbiyspI9LS3qDwiC4uPj8UzZ09OzfPlyrT1H+YV+fn48Hg9PW8rTaeGAy+XGx8dTbhodBRobGz948ADPgnK5PCcnh1Vj3jt27MDTlvJ06jmQy+WXLl1i2xMBAIAlS5YQf/J/+vQpq4JiRo4cWVNTQ7nLMQVSz0F/f39wcLCO9y4dl1dVVWGaQJEol8uTkpIsLS3pKF0LmRAEBQUFKdSj9YR6Ds6fP69Fnem+xNfXl4wda2trR48eTbcy5OW7uLj88ccfZDTXMQ/FHAiFQnYOIefl5ZG01KJFizgcDnlX0Z0zNDS0v7+fpPJaZ6OYg5MnT9JtFy3kjxgx4tmzZyRtdP78efaMNAMAMGbMmNLSUpLKa52NSg76+vo++OADLfxE9yXbtm0TCAQkbSQQCFj1adTIyGj9+vV0T3ygkoPi4mIWTkp0cXEpLy/XKOAnPz+fbjQ1kj9x4sTKykqSHGuXjTIOhEJhcHAwk0vUkDTlihUrXrx4oW4dmUxWUVGByQefzx8xYgRJ+QxkGzJkyA8//EDrsm2UcVBVVeXu7s6AUTQqwsLCIicnB9PZ9fX1vr6+eJHj3377rUYF0Z05KCiopaVFnWaqUijjYPPmzazqXqGOCQwMbGhowDTW999/P3To0PLycsxfOzo66HatRvIhCCorK6MvhpEaDtrb2z/88EONKsZAZiMjo4SEBMzmtLu7e86cOQAAzJs3D3OQUSgUrl+/ngElyReRmJhI3wskNRyUlJSwavgFNa6np+eFCxcwb/eioiLFU6yurk49j1wuP3/+vJWVFXk/0Z3T09OTvnUbKeBALBZv377dzMyMbkNoJJ/D4Xz66aeYn+wEAkFcXJwi2iA2NladAwRB2traQkNDNSqU7sz0hSpRwEFbWxsLJ67b2dkdPnwY08F37txRHvR0dHTEDEoQiUQZGRkmJiZ0e5e8/MTERMwa6Z5IAQdXrlyZMGEC+cowk9PLy6urq0vdQFKpNDMzUzlk0tLSMi0tTT0ngiDV1dW+vr7MKEymlJEjR9I0H1JXDuRyeVZWFn0LG5OxjnqeIUOG7NixA7N3/ezZs88//1z5EgiC5s2bh/kE4fP5bOstEoRQYKJMMlFXDvh8/ubNm5XNyobzoUOHqgejohYpLS1Vb+rd3d0xx/BhGFbuUbKhavv37yfpWo2y6cpBa2sr2zpTAAB8+eWXmFZ4+fJlcnIypjuXLl2KOab04sWLsLAw9izjGBISglk1HRN15eDmzZtsW86Cw+HcunUL0y4tLS0+Pj6YHMyYMQNvhuHevXttbGwwr2I+0cTEhI5F3nXiQC6Xnzp1inlbEJc4depUTAhgGD5+/DjetdbW1vv27cNsEhobG/HowZNGX7qxsTHeCClmrUkm6sSBWCw+cOAAfXXWTnJRURFm5aVS6UcffUQgc/HixZgTSKRSaWxsrHqvgkAUfT8ZGRkVFhZiVlCXRJ046O/vT0xMpK/OWkieOHFiT08PpkXq6+uJB7vs7e1LSkow3zIqKireeecdLfSh/BIIglJSUjArqEuiThzweLxPPvmE8qrqIjAjIwPvDZvMG2BSUhJmxIdQKAwMDNRFMaquBUEwIiJCF5djXqsTB11dXZMnT6aqhrrLcXNzq62txawnl8slEyPj4+PT2NiIKaG0tFR3DSmR4Onpicc6puZkEnXioL29nSWtJWrf+Ph4LpeLWe2DBw+S9MGJEycwv0AiCMKS+NV//OMfmKNemBUnmagTB/fv3ydpXAaymZubnzhxAjPkRCQSKb4uDqpJcHAw5qMBQZBffvll0MsZyODm5kb54rw6cXD9+nUGqk2yiLCwMLyInXPnztna2pKUAwBAdXU15m3U3d3NhmUfXVxc8B5/mGqTSdSJg8uXL5M3Lq05LSwsUlNT8QZYNm7caGpqSl6BmJgYTNvJZLKvv/6avByacjo5OVE+G1onDk6fPk1TVTUV6+vrSxDRe+7cOY0mLtra2mJ+iUbncet9bNHR0ZHySU46ccCSWSscDmf58uXEMxTq6+vj4uLI47V3717MJqGrqysiIoK8HDpy2tvb442VYepMJlEnDg4fPkxHPTWV6eLicvLkyUFry+Vy09LSSAp3dXXFDGyUSqVHjhwhKYSmbOjCzIPWV6MMOnGQlZVFU1U1Ejt9+nSS71ESiaS0tJTMu4OFhcXp06cxTVlXV6cczqSRqpRkZh0H2dnZlFRMFyFWVlY//fQTpsPwEqurq/39/Ym/F0AQFBoaijlcIxAIvvnmGz2OJbCOAzb0D9zc3B4/fozncrz0pqamZcuWES914OHhgff9+uzZs3pcB87Ozo5d/YOSkhJdbmVKrl27di2ms2EYxrybFZl5PF5ycjLBluGWlpZbt27FFNLZ2fnZZ5/pKzjF0dHx7NmziopQcqJT/4AN4wf37t3DNER3d/exY8eIx93QzQJnzZqFR+SsWbOamprU5cMwfODAATs7O7wLaU13cnK6fPmyula6pOjEgd7HE8PCwjAHkmEYvn79upub25IlS2pqajA/JSusduvWLZXIVYUX7ezsfvnlF0VO5ZPm5ub3339fkZPJE2dn57t37yoro/u5ThzcvXuXyfqrl3Xt2jVME4jF4l27dgEAYGpqOmnSpIsXL+J9OkIQRC6XP336NCkpSX2XGBAEY2Jient71UuRSqWJiYl6mdLJuu8Lz549U7edurdoSvHz88MbSObxeCNHjkTLBUHQ0tKyoKBA3ZfKKQMDA9nZ2eqxll5eXnhzYWtqatTz01RZZbEeHh54sTbKNdLoXKf2oLOzU19ba4AgiDehHUGQ4uJiZcOh5ykpKYMuZV5eXv7ee++pdAB3796Nt8rt3Llz1QuiO2XcuHF4N4BGvlfOrBMHXC5XX0Hrrq6ueLtWSKVSzMnXEAR9/vnnjY2NBM8IBEGamppmzJihHLRCsPbAhQsXjIyM6Ha8snwQBOlYTE8nDl6+fEkm2Eu5GlSdb9q0CS9K4M6dO3ilGBkZzZw58/z588QNQ39//8aNG11cXFA5ZmZmxcXFmPSIRCKGW0QIgjZt2qR8K1NyrhMHIpEoPT0dz+j0pTs6Op45cwbzTQFBkBUrVhAX7enpefjwYeKhaIlEkpOTM2nSJFRUTEwMn8/HtHhOTg5xcdT+yuFwjh49iqmJLok6cSCTyfQypBgZGYm3Dl5HR4ejo+Ogpnd1dU1JScF8EVBYUyQSXbhwISAgAIIgBwcHvIGK3t5eMh8sBlWJZAZjY2M6FtvViQMEQSorKxkOURw6dOj+/fsxh/kQBNm/fz/JkBNbW9slS5YQd7ylUumDBw9iYmKsrKz27NmjQETlZNu2bSS9qHs2ExMTvJZJRSuN/tSVg5aWlqCgIN2rR17CrFmz8G6Ivr6+999/X6W3TyDZ2Nh4+PDhxDFeMAzz+fy0tDQnJyc8yzIZpzllyhTiYTE8JYnTdeWAy+Vu3LiRwNbU/gSC4Nq1azFnnyEIcu7cOUXnjny5NjY2JSUleL0NhflKS0vxVtnh8/nR0dHkS9QlJ0GzpFBVixNdOZBIJBkZGYx9hB09evSZM2cw6ymRSLSefebg4JCens7lcolvNbxRBLlcfvr0aZLPI10gAADg9u3bmNXXMVFXDhAEKSsrc3Nz07F6ZC7ncDgLFy7E6+fX1NTosh6utbX1mjVrHjx4gPl+OKiVm5ubGZjw9O6771I+goRWjQIOWlpamBlNGjZsGN6SRzKZbN++fRoFp2OSFxISUlVVNegzQh0LoVD4ww8/0L0uzMqVK9WLpiSFAg6EQmF8fDz53hmmA8gkenh4YC55hCBIR0dHZGQkGSGD5pkxY8bx48e1MO7Vq1fpnh5PJgxTC80RBKGAAwRBjh49SveCxBAEJScn41WytLRUix4iHhOurq7bt2/H6w3g6cDlcgcdwsIrkUy6s7Pzo0eP8ErXMZ0aDhobGwmiOchUctA8xsbGmIsTIAjS39//7bffUrvEt5WV1eLFizEX6MazOAzDR48eVXznHLRGmmZYtWoV3lA6nkrk06nhAIbhFStW0PrFJTo6Gq9WDx48oCOAGATB2bNna7T4SHt7+/z58zV1MMn8BQUF2vVh8eymnE4NB+hbA30f442MjPAWL5LJZASr3ZA0MUG2KVOmnD9/nnwvPSUlhY7VeKdNm1ZfX6/sOWrPKeOgr69v9uzZNPUW58yZg1dtHo+3dOlSAkfq/pOHh0d2djbe+6qKYg8ePBg7dqzuhSpLQPtG9D0UKOsnorYgP7avXEky5ydOnFAxt+LPu3fvMhATZWVllZiYSHKZ68WLF1M7sObm5lZWVqaoMh0nlLUHCIJ0dnZSfisAAODp6YnXQ0QQ5JtvviFDEiV5IiMjb9y4MagbTpw4oRzGonvRUVFReC/MgypDMgOVHCAIkpGRoXu1VSR8//33mFMNEQQRCoX09c9V1AAAAARBPz+/oqIi4oGmyspK4hky6pIJUkaOHJmfn09cIklnE2SjmIO+vj5qx5idnZ2rqqrwhv2ZX72Rw+F4eHjs27ePIKKpsLCQwvYgMDCws7OTwIWU/EQxBwiCUDv59auvviIIEZg6dSrBnUTTTyAImpqaxsfH4ykWGBhI1WCGg4PD0aNH8W4DSghAhVDPAZ/PHz9+PCU+sLS0zM/Pl0qlErVDKpXevn1bsZcGJcVpKmTp0qVPnz5VtNgwDItEov3791O1xzkIgtOnT9d0WFM7OKjnQCaTnThxgpIJHm5ublu2bMnMzMxQOw4ePLhw4UKqbjtNCVDknzp1akFBwf379xsaGq5evfrPf/6TwsluNjY2ly5d0s6vml5FPQfoV5/FixcrjPXGn7i4uIwZM0Z5bw9KqvzFF19o6k6t89PCgUwmKy0t9fDwoMQcb6eQMWPG4C3/prWzCS6khQMEQXg83tatWynsNr9tNNARnK4HDhAEuX///uzZs982/1FS36ioKDqCkvXDgUwm++233+j7+ESJxVkoxMfHp7a2loF3RWUs6HouKMqIj49nJoCThR7VQiUIgnJzcxXvogoz0n1COwd8Pp9Va7Jr4RvGLjEzM0tISMBbKpxWFGjnAEGQe/fujRkzhjFrvqYFmZiYhIeH403iphUCir87E+h65swZw2skAaAQBE2ZMoXyVZMJPKLyExPtAbr2TF5eHpkZqATGeoN/srGxKS4uVvENk38yxAEaTbpz505DnxGT5tzcXLzJeszQwBwHCIL09vZu2LAB0xBvc+Kvv/5KPv6RJiwY5QBBED6f/+WXX77NXlep+5EjR+iLQiYPDdMcoEPOn3zyCa1B7iq2Zuef6D7zxNsFkHekjjn1wAGCIFwud/HixW/z1wd7e/u0tDRaQ5A1IkM/HCAIMjAwkJiYyIbtjhhuLSAIcnNzy8jI6O/v18hVtGbWGwcIgkil0p9//pmOEGeGXUu+OBAEfXx8jh8/ThDeSKu/8YTrkwMEQcRi8alTp+bMmUPelK91zpCQkGvXruEt7oTnJAbS9cwBgiASiaSmpubjjz9+rR1MRvlNmzbhLfPGgKeJi9A/BwiCwDDc09Ozbds2BmYmkXEY5XkcHR3z8vJY1SFQwYIVHCh0OnPmzPDhw9+kV0oTE5PAwEDKl8lXWIyqE3ZxgI4urFixwsnJifKbkmGBEASNGTMmOTm5u7ubKm/RJ4d1HKDvEUVFRXPnzmV4hU4KQRkxYkR4eLgevx9qSgwbOUC/T7a2tqanp8+bN4+SqRAU+phYlK2tbXh4eF5eHsl58po6jKb8LOUAra1YLL53715aWpq+dsAhdrnKr5aWlgsWLMjKymptbWU4ulB3OFjNAVq9gYGB+vr6n3/+mY7Fb1R8qd2fJiYmH3300YkTJ1paWvT+5VA7Jl4DDhRtw4sXL06dOqXRjt3a+VWjq6KjoysqKnp7e1k4OkSeideGA+UqPXz4MD4+3tbW1sjIiKaVeAhQgCDIyMjI3d09NTWV7uUplGtN6/lryQFqkZcvXxYXF0dHR48aNcrR0dHS0pK+aa8QBA0dOnTEiBFeXl5xcXEXL158+fIlrY5hWPhrzAFqKblc/vz583Pnzm3bti00NHT69Oljx46lZNKxkZGRo6Pjn/u1zZw5c9GiRbt3766srHy93gLIw/Tac6BcVYFA0NLS8scffxw4cGDdunXLli0LCQmZNWuWt7f3yJEjra2t8fb2NjExsbGx+XM5qkmTJvn7+y9atGj58uUJCQnZ2dlXr1599uyZfoMHletI0/kbxYGyjeRyOY/He/ToUU1NzaVLlwoLCw8fPvzTTz+lpqbu/PuxZ8+ezMzMI0eOFBcXV1RU1NXVtbW1sSdCRLlS9J2/sRzgmUwmk6ksrsL8JDI83fSY/tZxoEdbs7loAwds9g5zuhk4YM7WbC7JwAGbvcOcbgYOmLM1m0sycMBm7zCnm4ED5mzN5pIMHLDZO8zpZuCAOVuzuSQDB2z2DnO6GThgztZsLgmXAxiGu7u7u7q6tBt+F4vFHR0dPB6POFJPLpdz/zrwdtrAs51AIOjo6GhsbGz463j48OGzZ896eno0ksPn87lcbm9vL/k68ng8VGHlf3k8nkgkIq6pekWEQiGPx+vp6aEqkEkikfT09Dx69Ai1SUNDQ2Nj47Nnz7q7u4VCIbF6uBw8efIkKSlp5cqVz58/V68DcQoMwzdu3Fi2bFlycnJHRwdB5s7OzrV/HXi7d6tcC8NwR0dHXl5eQkLCsmXLgoODA/46FixY8Nlnn61atWrTpk3p6elnz54l86V43759f+4en5CQ0Nvbq1IQ5p/FxcXr1q1DFVb+Ny4ubvPmzZmZmbW1teSXyb98+XJCQsKqVasaGxsxiyOfKBAIzp07l5ycvGrVqvDw8KCgINQswcHBkZGRsbGxmzZtKi4uJoidweZALpcfPHhw2LBhAADk5OSQVwjNKZFIDhw4AACAlZVVamoqwdzehoYGAAD+jPT6/vvvBy0FhuH6+vqoqCgHBweCuDFzc3NfX18yN1lISAgIgg4ODk+fPh20dARBiJd8s7a29vPzy8rKIvnN+uDBg+i0//LycjKl4+Vpb2//4osvPD09CWwCAMDatWsJZtRgc9DZ2RkdHY3KdXV1xdMAL10kEv3444/o5Q4ODgS7EqMccDicXbt24UlTpPP5/M2bN6N7afv7++/evbugoOD3v46ioqLc3Nzdu3evX79+/vz5n3zyieIqgpNFixaBIOjo6Ehy+ilao3HjxqWnpyt2hfj555/T0tKWLVuGzrpxdHT87bffyFCYnZ2NLiCnCwdisTgsLAwNyBs+fPjWrVvz8/OLi4tRs5w8eTInJ2fv3r0bNmw4fvw4wdor2BxcvHjR3d1dwZem83KUOQAAwMbG5vHjx5j+0IiD1tbW9957DwCAJUuWNDQ0CIVCmUwmf3VIpVKhUPjy5cuenh6SS5Jqx8H8+fN5PJ5Y6RCJRH/uQnPy5El0LYfJkyeTaRIo4eDy5cvoHMAJEyY0NDQIBAKpVPrKJHI02AI1C3EXAYMDgUCwc+dOAAACAwO9vb05HM7ChQuJexkqPlZwAIIgiqqrqytmD04jDurr61E0d+3aReaGU9FK/U/tOAgICMC8sQQCQVxcHKohmWVRKeFg79696CTx06dPq1eQfAoGBw8fPpwyZYqJiUlmZuaxY8esra2NjY012uZYwYGPj09kZKSFhQUEQatXr1af+K0RBy0tLegufUuXLn3y5IlGaGJahFoOZDJZUlISumVUXV0dZonKiZRwsG3bNnSPwNu3bysL1/RclQOZTJafnw8AwOTJk69du9bd3T1+/HgIgr7++mvydldw4Ovre+vWreDgYAAAbG1tMzIyVPqMGnHw56vamjVr0Btu/fr1dXV1OrYK1HLQ29u7YsUKAAAcHR3JbBRPCQe//vorui3YDz/8oMv6e6oc9Pf3oxOGYmNj0Rjt5ORkAABGjRrV1tZGkjIFB97e3nV1dc3NzegERXd398LCQmV1NeJALpdXV1fPmDEDXSDB398/NTX13r17WtOgHQeBgYEqzzgYhrlcblZW1ujRowEA2L59O5nZbZRw8Pz5c39/fxAEnZ2djx8//uLFC/JjIcreVOXgxo0bHA7HyckpLy8Pzdfc3Iz29TIzM5WvJDhX4QBBkOvXr6M2mjlzpvLO7RpxgE6Jv3nz5rp16xR74/n7+yclJd25c4eM6VV01o6D0aNHb9++PUXp2Lp169KlSz08PMzNzZcuXdra2qpSEOaflHCAIMiVK1dmzpwJguCIESM+/fTTuLi4jUrHli1bqqurMRVQTlTlIDY2FgCAGTNm3Lt3D80nl8tDQkIgCAoODsbbuVJZIoIg6hzI5fL8/HwjIyMzM7M1a9YoBpc05QAtqKurq6ioKCIiAu2EmpmZTZw4MT4+vq6uTrmxUdFK/U/tOOBwOOZ/P9BXWQAALCwsvv76a5KjUlRxIBKJ1q9fr3i5Q/vm0KvDxMRk3bp16nVXSfkbBx0dHWinw9zc/Msvv1S87FVWVgIA4O7uXlRUpHI95p/qHKALnWzZsgUAAEtLy/T0dLSjoB0HaMPQ1dV1/vz58PBw1ARmZmYuLi7/+te/yI/oaceBg4PDokWLIv5+hISEuLq6giBobW09Z84cBeiY9kETKeGgr6/vww8/tLW1BQDAzMxs6tSpkZGRUUrHmjVryIzV/o2DPXv2KLCCIGj27Nn379+HYVgikUydOhUEwdWrV5OxMiYHCII8fvw4IiICAAAOh3PlyhUYhrXmADUlDMNisbiqqkoxCZrD4Xh6epIcC9eOA/S9Uap2cLnclJQUGxsbEAQ//vhjAgIo5GDHjh1WVlYAAHzwwQdNTU0SiUSmdpDp4P+fAz6fb21tzeFwgoODf/vtt7FjxxoZGdnb25eVlQmFwry8PBAE33//fTIPGzwOEASpqKiYPHkyCIJubm5dXV1NTU0oFmTGEwksKxQKT506NX36dPS1bfTo0WT2O9OFA0xlxGJxZGQkh8MBAGDQFznd24O2tjZ0TQhLS0syI1eYOqOJ/+cgPz/fzMzM3Nz85MmTcrm8oqIiKCgI3S7hp59+un79upubm4WFxY8//jho/5yAAwRBDh06hH4g+POLCLpHM8lxZYJqoD89ffo0ICAAgiBzc3MyjzDKOUAQ5NixY+hocXZ2NrHCunNw/fp1b29vAAA2bNhAXPMnHwIAAAQmSURBVNagv/6Pg76+vqCgIAiCxo4dq5jSW1tbGx0dbWpqCkFQVFRUUFAQAAARERFPnjwhlkvMQX9/f0JCArrqUUREBNoI6dgeKPQpKioyNzcfMmTInj17FIl4J3RwkJ+fj1J++PBhvHLRdN05uH37to+PDwAAy5cvJy5r0F//x8HZs2fRjRZTU1OVr+no6Pjmm28sLCw4HA46fmlnZ3f69Gnil1RiDhAEaWtri4yMRJew4Px1kOEAhuFBXwf2799vampqZmZ25MgR5YpgnlPOAY/HW7lyJdqIkn8uXL16FVO9QROfP38+a9YsAACGDx/+4MGDQfMTZPgvB2KxePXq1ejLT2dnp0pugUDw66+/TpgwQdGF3Lhxo6LNUMmM/jkoBwiCNDU1eXl5oTJJPhdaWlpWrFhx6NChW7dudXd3K7Mol8s7OztzcnK8vb3RNSvIfNTXjgP0O5NKN1EkEjU1NSUlJaGfkkNDQ1XGmtQNpWgPfv/9946Ojjaco6enR7mmynJkMtmOHTvQ/cU//PDD33//XT2mBo30qa+vf/z4McED/b8c1NXVTZ8+HQCAlStXKhejOEcH8gICAlC3DRs2TDG6oMijfEKGAwRBbt68iQr885V3x44dyhLUz2EYPnbsmLGxsZ2dnYeHx4QJE/z8/KKiolavXr1q1aqwsDAvLy97e3u0j0amE4MgiHYcWFlZeXt7T/r7MXHixHHjxqFN5sSJE8lQqODA3d3d09PzPZxj3bp1BPEjvb29n3/+OQRBHA5nxIgREyZMWLBgQUxMzOq/jsjIyJkzZ3p7e48ZMyYxMXGQ+INt27ahI7U3b95UdwCaAsPwo0ePvvjiC9Rz5eXlBG8jCg7Gjx9fU1NDIDM3NxcAAFNT07S0NLxsCgWqqqoWLFigWHUXBEGjVwc6oAQAwOjRo8vKysgEI/0JYkBAgEbxB2T2m4uKinr8+DGBcRTVPH78OJlNj0NCQojffQYGBg4cOKAYy0KXb0INw+FwFOtHhYaGEgx0AgMDAxcuXMjOzj558uSg5uPxeDk5OdnZ2cRvKTKZ7O7du1lZWQUFBQQMIggiFApzc3MzMjJIjsEhCNLX11dVVZWZmbly5coFCxZMmzZtxowZCxcuTE5OrqioGLQ1VrgBQZCSkpLc3NwjR44QP+YUl7S3t+fiHHl5eaWlpe3t7XhtuEKI4kQsFl+4cAFH3v+TL1y4QGbIXCKRlJeXf/fdd0uWLPHz85s2bdr06dMXLlwYHx+fk5Nz48YNgkaFuX08FZU3nLDTAv97X2CncgatGLOAgQPGTM3qggwcsNo9jCln4IAxU7O6IAMHrHYPY8oZOGDM1KwuyMABq93DmHIGDhgzNasLMnDAavcwppyBA8ZMzeqCDByw2j2MKWfggDFTs7ogAwesdg9jyv0HGwYwLXQ3FLgAAAAASUVORK5CYII=;" parent="1" vertex="1">
                    <mxGeometry x="-604" y="-1650" width="120.27" height="128.61" as="geometry"/>
                </mxCell>
                <mxCell id="25" value="&lt;b&gt;&lt;font style=&quot;font-size: 25px;&quot;&gt;orchestration&lt;/font&gt;&lt;/b&gt;" style="text;html=1;align=center;verticalAlign=middle;whiteSpace=wrap;rounded=0;" parent="1" vertex="1">
                    <mxGeometry x="-1100" y="-1540" width="190" height="30" as="geometry"/>
                </mxCell>
                <mxCell id="28" value="" style="curved=1;endArrow=classic;html=1;entryX=0.5;entryY=0;entryDx=0;entryDy=0;exitX=0.5;exitY=1;exitDx=0;exitDy=0;rounded=0;edgeStyle=orthogonalEdgeStyle;" parent="1" source="12" target="4" edge="1">
                    <mxGeometry width="50" height="50" relative="1" as="geometry">
                        <mxPoint x="-544" y="-1430" as="sourcePoint"/>
                        <mxPoint x="-494" y="-1480" as="targetPoint"/>
                    </mxGeometry>
                </mxCell>
                <mxCell id="31" value="" style="rounded=1;whiteSpace=wrap;html=1;fillColor=none;dashed=1;" parent="1" vertex="1">
                    <mxGeometry x="-709" y="-1300" width="340" height="510" as="geometry"/>
                </mxCell>
                <mxCell id="29" value="" style="curved=1;endArrow=classic;html=1;entryX=0.5;entryY=0;entryDx=0;entryDy=0;rounded=0;edgeStyle=orthogonalEdgeStyle;" parent="1" source="6" target="7" edge="1">
                    <mxGeometry width="50" height="50" relative="1" as="geometry">
                        <mxPoint x="-589" y="-1005" as="sourcePoint"/>
                        <mxPoint x="-749" y="-890" as="targetPoint"/>
                    </mxGeometry>
                </mxCell>
                <mxCell id="35" value="Passerelle reseau&amp;nbsp;" style="edgeLabel;html=1;align=center;verticalAlign=middle;resizable=0;points=[];" parent="29" vertex="1" connectable="0">
                    <mxGeometry x="0.2529" y="40" relative="1" as="geometry">
                        <mxPoint x="25" y="4" as="offset"/>
                    </mxGeometry>
                </mxCell>
                <mxCell id="32" value="&lt;span style=&quot;font-size: 25px;&quot;&gt;&lt;b&gt;Integration&lt;/b&gt;&lt;/span&gt;" style="text;html=1;align=center;verticalAlign=middle;whiteSpace=wrap;rounded=0;" parent="1" vertex="1">
                    <mxGeometry x="-1089" y="-1190" width="190" height="30" as="geometry"/>
                </mxCell>
                <mxCell id="7" value="" style="shape=image;verticalLabelPosition=bottom;labelBackgroundColor=default;verticalAlign=top;aspect=fixed;imageAspect=0;image=https://www.clipartmax.com/png/full/92-925106_vmware-workstation-logo-png.png;" parent="1" vertex="1">
                    <mxGeometry x="-607.64" y="-915.5" width="117.27" height="115.5" as="geometry"/>
                </mxCell>
                <mxCell id="6" value="" style="shape=image;verticalLabelPosition=bottom;labelBackgroundColor=default;verticalAlign=top;aspect=fixed;imageAspect=0;image=https://www.starwindsoftware.com/blog/wp-content/uploads/2019/03/racsultat-de-recherche-dimages-pour-azure-vm.png;" parent="1" vertex="1">
                    <mxGeometry x="-689.7" y="-1231.3899999999999" width="281.39" height="281.39" as="geometry"/>
                </mxCell>
                <mxCell id="5" value="" style="shape=image;verticalLabelPosition=bottom;labelBackgroundColor=default;verticalAlign=top;aspect=fixed;imageAspect=0;image=https://raw.githubusercontent.com/docker-library/docs/c350af05d3fac7b5c3f6327ac82fe4d990d8729c/docker/logo.png;" parent="1" vertex="1">
                    <mxGeometry x="-709" y="-1050" width="162.37" height="145" as="geometry"/>
                </mxCell>
                <mxCell id="18" value="" style="shape=image;verticalLabelPosition=bottom;labelBackgroundColor=default;verticalAlign=top;aspect=fixed;imageAspect=0;image=https://www-mkt-uploads.s3.fr-par.scw.cloud/f2eillf09uf4n87ibcfn_e2f85cd27f.svg;" parent="1" vertex="1">
                    <mxGeometry x="-614" y="-1290" width="140" height="140" as="geometry"/>
                </mxCell>
                <mxCell id="34" value="" style="curved=1;endArrow=classic;html=1;rounded=0;edgeStyle=orthogonalEdgeStyle;exitX=0.5;exitY=1;exitDx=0;exitDy=0;" parent="1" source="4" target="18" edge="1">
                    <mxGeometry width="50" height="50" relative="1" as="geometry">
                        <mxPoint x="-189" y="-1385" as="sourcePoint"/>
                        <mxPoint x="-349" y="-1270" as="targetPoint"/>
                    </mxGeometry>
                </mxCell>
                <mxCell id="41" value="" style="rounded=1;whiteSpace=wrap;html=1;fillColor=none;dashed=1;" parent="1" vertex="1">
                    <mxGeometry x="-939" y="-770" width="360" height="310" as="geometry"/>
                </mxCell>
                <mxCell id="42" value="&lt;span style=&quot;font-size: 25px;&quot;&gt;&lt;b&gt;Deploiement &amp;amp; Test&lt;/b&gt;&lt;/span&gt;" style="text;html=1;align=center;verticalAlign=middle;whiteSpace=wrap;rounded=0;" parent="1" vertex="1">
                    <mxGeometry x="-1150" y="-811.71" width="280" height="30" as="geometry"/>
                </mxCell>
                <mxCell id="2" value="" style="shape=image;verticalLabelPosition=bottom;labelBackgroundColor=default;verticalAlign=top;aspect=fixed;imageAspect=0;image=data:image/png,iVBORw0KGgoAAAANSUhEUgAAAIAAAACACAMAAAD04JH5AAABSlBMVEX///8Apc5BbMUIns07ccY4dMZAbcVDasUKnMxKZMRSXcOv4/A3dcY0d8csfsgqgMhZV8JHZ8QhiMlLY8QxesdPYMMZj8pUW8IogsgTlMsFoc1hUMAcjMpbVcEkhckYkMpoSr9vRL5nyeIfsNTn9/plTMCX2uvX8fdyQb7G6/ROwd190eam4O4Sq9FrSL8PmMs6udloYMXv8Prh6fa4zOqjwuZdldPN5vOa1erj9fqL1uni1fF+SMGHVMWabs6side+o+DRvunaze6uldry7fmWetHQxeu6ruOvot5yWMWQgdKYj9d8c8xwZsiYjdbe3PK8uuaVmNmGjtVkbsmss+OMktbHyet0f89edcquteN/l9eIodpsidF/mdfS3fGQq96xxOd4ptqLt+BdntW+2O6Vv+NfotaPvuJystyt0utXrNiLx+SNyuZsvd8+2iWfAAAIyUlEQVR4nO2Y7VvayBrGw7FWa1q1rCJ0UU4hBxpiCoZ3etyXvli1dq21y1pLcVVUQPn/v+7MZGbyTBIUNgN7znX5+6DJMJP7fp55ZiagKPfcE4hX/33xYvOnn3/5df8fMvD+BWPzzet/wsDPLwCbv1gTN/ATNPD8+cs3bydsYPO5i81fJ6pvufUR7yaZhFdU9CVkZ2tyBt6/dPNvzOSm4Q1QBfzn/aQMvHMJc7YnZGBHUIXs7H4a/6bw9h1T23GUf+SMuxitLSK7s72FzoG3W9sff/TwYXxJeP1hw451l69668Alv7q6ujce9caHHZblT7D91UcsytnY21j9IF/99W8bTpCfxM/2of7qgaIcLDYky7/dBQle/c398fbq6qIN/o8qYE/uJFjbQogbuMb2dzf2nETsLQK+KMrvizLfVLY+CvqLeLdpECm+7zSo9goGRX+w8kWavLW7KiR4kczvoa3H1lthBbJvLc8dyNIvCNklFJArKsVrbXllZY6A/38+nJNmYP8jULZFl3H7HI2V9ftjTmB5WdIU7G+seDjEH/xOQj3kHT8TVYCcddiY47JOgufwxFs45EOn1A+XRX6QshvvL9uqYnrn7OAaXxqOiGWrOpzI0LcOxWll+Exvw5F+hDmSoY/mddkXn6cfPxIpytD/6p5WjicFDSz61KEpQ3//B3FWQYIftcSu1tFTkWMZBj67VTlPnx4VBP0m1Z1hfJOg3/KoQma+Oj2LRzOQfyFkrIE/PKJQf2amWSSL0Gp9Z6oACQYavqpiqEfH34+g7EObx83vrbsF7qLpL+oOlalON4+/nXz9s9gqSHofLdyq+tBFSY4o5MQ31Gax2HSLY05kxe3wwC/UaUspPGA3D1w8aZa/nZyViu1W4e7H30nLL86HaH9tErFptzpqgjyeL5dPT0oBnJSALNdA++uJfVW0Sk2Pqi0NeBKgNI69ISJZpTBNVE9Jkk4f+6lS7fJpKdBSXPJJMEpAmegt0YqzSmVBlBJF2oFrctonwUWlZSuBo7ZwtvQEgOPWgmrbBrzTuoASQC7KYtdiGXlYWirLiJtT8JnVM6VFolzy1HahVGpL3gda4qwSSkrxCQkVaBXaEjZ9P9qC9BIBZf6UXETbtNfFwtL8fLl965P+JkWmCikxB/PlEspCpTxvA5NgFVoVGQZKHnWsdKEoZ/OMMr865cO65wuY8+BJOXNUIecFxTqL0huk1GlfoL9dOqhSjjIugx4HJbc0JYqSoLQvzteQCJLGE3HFUl7AjdEw+RsNB3TQhqoLkHO+Bmpr0S4cc4l0z7Bu5XxtbS0ezEBhwQ3P7hXv1Il2wJAuUmVzf4Wur5RAiKKQNb7VWlcwz5dEs9DpdVBrJBwOBzMQ9tUmDAgNaVYULY6U4xWli/4FWwrnoiji8qITti8GWA6HNaUSvryKh3tKJR6PXwcy0FlzgzKvoTSvDcptHEeu1FAxxONKDRno+Pcbkq4gjqI7J82X6Crsv9V1mOQ1MqAgA71ABpQwVgXQx13Sya15BlRo0LUYks7E45GABjphXwM4t12lnYh704BSEMn1eolIpK1UI5FIP5iBNpGNc1g8KMHXKNicNwVKP2KDqq+XSCS63h4jEYkLxGizloj3enH/6DLXs4lYD89QDBnwsTgSHdEAz/kNDhKLVK4Hvv1VE4lYLqC+UiEpiHD4ss6h6HqachNLDCqzWi4WiwXbBjDXjjiSTORYvCq+S+AkJwaM7CF9vyIZlVxCgMfbR/I2/uNucoiAa4DQFQ3Ebmi71qf6/iJEP5eRYAAvphiEr/0qSfKN76B+TlYCaDEBclXno0rFdw1kTKI/KyUBaCVQYU7/jtK6of2qt3cbnmrOzc3gr35a9Zkd/qycCSD0PQ5m+/7p1ftTs5SUPH0/B7lcquqeCa1qznJMOd+PBzmwRZ71q3qNCGVUo29OzU7ZoI9CErYgj4NZf6amntmi5NomL1sfVaJLlIXqiDo8M6TLI/QQEPVRpdqIkD4OfVRjyVtEAWNIP0M1B6pyzPrY5DHp0CBhGv36WOUx6/mB6qHsmCbfRcYw3cqYVFLS2TMMej2bN0McM59cH1/lDUTLqISM3E33nnvuueee/x1qaSOZNNLgiNMyGXHfR/cZ5xDS9HXDWNddJ0NGV9N1Y/SzSs2zoy6fZm0pfJt0+hjkc/oOoGfZAPBWoBkp1ppKjnJmadkQIE+faN85b7xJcq96B2Splm7CVjPt0RnEujAQUQcGbEWXgazYP28/xvWU0LAO0u6BNGwWCSsLx4Dh7p9V8Jd0z2OGe2eqeQfaIbGblOY2wD7IJtmcZ9jHaKyRZAWVvEXWgfXOpvVM2n6KMAV2fNCADjJM5x2NoHGQAqI9zGH06zQaWnmZfChPM+eaEccAHWInRqcp04Arno5hDJhCmrEFdgGmRBUM0KKhxZ9JI5B9fR3BBgseb0UFiXMBDJBC5AZqrDU56IuBZtfGMD9aJOEsDzRAMuQUYcppr7uCrKXRRpik9TBMEWZZDSH0FCfLDdBnZaEBFXoTt7w8+CQ1zGaYd+aYTRwrHzqNNFwDbkTCnmPCnwdSoH2obeBOA3yDUYEBRQVCwgzC9qG+OsIp8DcgJpzvzHW4fzmTPfIUwCKESsCAYMw5GhQVnAh829dUdb1ujFCE3mVIHmtCA8LZo4LBWp1lPC8+dYRl6NmIMin2QMcATKwqDldN0M2BHlfDzAHd1thWTB+YFA2AAwvvhHihsg2bLoiakjcRWdqa9bXlD8tvtq7rdXajiwZAefCt2LQt20VksrPAbqXdhzqMFM3nOCZFKQTBCxFsxflknZ28WRDIqMexa5mR+dA8BvjzcQ3kPSPS/AiGDPsjjp4Sx+Xt2hENMFVsQHM7IKF63qxG+AktCcexfc1lgBai/VIqOqAjVPGldKSf8Phbtum8ZZO8gKVsJ4qtFmdvcEZodeft3hj5pyQ1bRhpYfvWEMrAhhoagL7JqOJ3kJpaN+r1yfyAeM//JX8BqSq1wuQZM6AAAAAASUVORK5CYII=;" parent="1" vertex="1">
                    <mxGeometry x="-788.2" y="-748.32" width="188" height="188" as="geometry"/>
                </mxCell>
                <mxCell id="38" value="" style="shape=image;verticalLabelPosition=bottom;labelBackgroundColor=default;verticalAlign=top;aspect=fixed;imageAspect=0;image=https://www.ubt-uni.net/wp-content/uploads/2019/02/Cisco_Web.jpg;" parent="1" vertex="1">
                    <mxGeometry x="-918.2" y="-750" width="140" height="140" as="geometry"/>
                </mxCell>
                <mxCell id="40" value="" style="shape=image;verticalLabelPosition=bottom;labelBackgroundColor=default;verticalAlign=top;aspect=fixed;imageAspect=0;image=https://www.networkscreen.com.au/images/Boxshots/Juniper-vMX-Virtual-Router-Box.png;" parent="1" vertex="1">
                    <mxGeometry x="-898.2" y="-610" width="150" height="150" as="geometry"/>
                </mxCell>
                <mxCell id="74" style="edgeStyle=none;html=1;exitX=1;exitY=0;exitDx=0;exitDy=0;" parent="1" source="56" edge="1">
                    <mxGeometry relative="1" as="geometry">
                        <mxPoint x="-329" y="-395.10344827586187" as="targetPoint"/>
                    </mxGeometry>
                </mxCell>
                <mxCell id="56" value="" style="rounded=1;whiteSpace=wrap;html=1;fillColor=none;dashed=1;" parent="1" vertex="1">
                    <mxGeometry x="-614" y="-395" width="280" height="300" as="geometry"/>
                </mxCell>
                <mxCell id="57" value="&lt;span style=&quot;font-size: 25px;&quot;&gt;&lt;b&gt;Monitoring&lt;/b&gt;&lt;/span&gt;" style="text;html=1;align=center;verticalAlign=middle;whiteSpace=wrap;rounded=0;" parent="1" vertex="1">
                    <mxGeometry x="-910" y="-290" width="280" height="30" as="geometry"/>
                </mxCell>
                <mxCell id="62" value="" style="rounded=1;whiteSpace=wrap;html=1;fillColor=none;dashed=1;" parent="1" vertex="1">
                    <mxGeometry x="-510" y="-770" width="410" height="310" as="geometry"/>
                </mxCell>
                <mxCell id="61" value="" style="shape=image;verticalLabelPosition=bottom;labelBackgroundColor=default;verticalAlign=top;aspect=fixed;imageAspect=0;image=https://www.starwindsoftware.com/blog/wp-content/uploads/2019/03/racsultat-de-recherche-dimages-pour-azure-vm.png;" parent="1" vertex="1">
                    <mxGeometry x="-405" y="-781.71" width="221.39" height="221.39" as="geometry"/>
                </mxCell>
                <mxCell id="63" value="" style="shape=image;verticalLabelPosition=bottom;labelBackgroundColor=default;verticalAlign=top;aspect=fixed;imageAspect=0;image=data:image/png,iVBORw0KGgoAAAANSUhEUgAAAPMAAADWCAIAAACL9SPtAAAXBklEQVR4Ae2d32/jNhLH+y/v35CH+wvyUPjNB9TAPagP5we7TxcDKbBBAiS9Q1JjHTTtZXMu3Ow2Nty62bV50E7AjGYoUhKpH6ZnESwomaTI73w4Go1k6ysl/0SBGBX4KsZJyZxEASVkCwRxKiBkx2lXmZWQLQzEqYCQHaddZVZCtjAQpwJCdpx2lVkJ2cJAnAoI2XHaVWYlZAsDcSogZMdpV5mVkC0MxKmAkB2nXWVWQrYwEKcCQnacdpVZCdnCQJwKCNlx2lVmJWQLA3EqIGTHaVeZlZAtDMSpgJAdp11lVkK2MBCnAkJ2nHaVWQnZwkCcCgjZcdpVZiVkCwNxKiBkx2lXmZWQLQzEqYCQHaddZVZCtjAQpwJCdpx2lVkJ2cJAnAoI2XHaVWYlZAsDcSogZPvadblaT2d309ndcrUu2xe0fZgvKrQte6xDqy9kV7T4crU+OT3v9RP9N0hG09ld8e6G44lu2+snw/Gk2vIofsSDqilklzY3ZxoDenF1XaTHi6tr3AqXT07PxYUX0dBeR8i260M/JX4aE6nLTi6Xq7WunFcQ/02lL7ktZBcVbDq7y6OQ7HfGJBaHjbsqG94Unclh1BOy3XZ+mC9ITIz54+WT03N7pwXJhp6H44nzJGA/3GF+KmTb7L5cre1Mn5yeD8eTQTLCfA/HE1unSpGQZpCMeCe4w14/keDbLin/VMjmmrzssXtW7Eo9ydY+/mG+IF0RviX4zrUW+0DIZpIoNZ3dOQnDzYhfHyQj/CkvE5+tyYaaJ6fnlqNDcpD3KXuIAkJ2RhBnSE0ohMZlySb1eZ/OYQzHk4f5IjN02cgqIGS/6kFcKYkEcPjx2uZLiZDq9NmkPicb+ncGJxJ8E0PgTSE7VcMZUtsdJFkSocgGO9lDI8kMYppx+dDJtnPT6yfO5LRiuY5eP8ES83JBn40bOoNvyQxiuZRSh0u2M5YteJ+8GbKVUs4BS3CC4T5Qskn8UDykxtrpMu/t806tP6nlc/r352dd8aVQwWfrLpzB98XVtfjvQ/TZniG1JgwXONlPz2rzWW136vNO/fEppRz/8yEb+rEHJxB8HzjfB+Szg4TUGFBd5mRvsn569Ul92unqyp/sInwfeGbwIMguEqG+cle+xM8DnxHHSqk/Pu0229d+Q5FdJPi2JCtfBxRjKXKynQ9+BHFsnOxnxLFSaTTyF9oTkGxgUoJvvjZjJpsDR64Ui2T0uGR8Dz/Q8jmNsOHf8za9jsT/gpMNndvDrUPLfMdJttOH5d32w/wVL3Oy/9qqp2e1+pIeSYNs5LCVChZnG0dov7g8nOAkNrKd4UcdSV9ONjD3+UtuhPNXk8/WBypyXRF95iQqsu1fexkkI/tNck1G2UIe2Xn91E02HNd+4oo+OImEbKerLn5DMQ9Hy/5ukg0Dvri6tj8TG6vzjoHsh/mCXBrizTrCD0J5l8lWStm/bF/w2Rgy5e5v7j3ZlgikAaa1X8RrqY4novxJsgcntZ7T/AdfoYf9JjsP6yBZ6uJqdtxn44lYgpPI4N5jsvOCkOYttEdkQ3BCLmH1CSemmHtfyc77MZqash/Y7fHyfpEN4zfe1hkko2jg3leyudepL6nHUSZ79pFscN48bdL8GY+IGWpzL8nmDtv5Ba1Qehn72VOy8+COw23vJdn8wrGVIERTbiR7/qf64YO6XapV9qGRuu+u61EVLPBHcEM9TlNwADVVi4Fs528y1aSd7paT/d397tufd9//uoPCDx903bRAQqmwD7FkjlRgg1+IC9kFZKunCvHZHSR7/ufrzFfP6rv7HfbcnSJbKaVzI1AQsl+N13Cp+2QTQX74kEYm+l/XyCbXkUK2tlTThb0j+3aZum0tk5CtpaivIHF2AG15nE06vV2q73/tLtlkpYnPJuZrbrP7PhtH1UqlDhtH3oSkdq8g+e+lCNnNoUyO1H2yv/05RXn1nP798CETinQtNyJkE7ra3Ow+2fM/U5r/Pktzf/jaEVQTn90APRJnBxCZ3+ywdypk2/UJ8qmQHUBGQrbzVn/XyCZXwBJnB2CiWhddi0aE7Gp2rLWV+OwA8grZAUQM3YWQ7aWo8SuGzrv9JBqBV1O3+ISdRCNeEARs3IVoxMg0PHdRgWzdsBW+heyAcHp11TrZBAXyRJHz4X3us3EPzb8aj0xHriC96PRp3CLZ9m+AA6BOMuxkQ3DS5BPnQrYPjSHbtkK288d64E27TocNQsAPlJGH7LDnbvK9vURP58oMacva+pIryELS8sfzMYWVf9hkuVpbfiah10+a+cqtkF0IggYqEUs4r9g8h2TBujLTZEjGb5LD4mkAbqKn+GxineY2iSVqJZvEoNpVF/yq/Pu1+tf/dt/c7v75y+7itx35IW0imYXvWsNuoqeQTezS3CaxRH1kk1swGuuCR/znL7uvf3z5++b2pWCH25JMrA84omd9B2oOkT19HySxREHOysqa560LXiNOf09R/uZ29379cuSL31722OGGdwobLy5rynYTPYXssqgEq08sUQfZebF1cauDw57+/vpVGqXSyOTrH3dkp1EXY3qxppib6Fl8jsaRd2Sn5EYMhuC/1ANxSKlgFxw26f39Wn39Yxpwk/3GzcbgFrKN+rewk1giuM82RgIFgxAtBwTWJPCAgKQg2RCW6OBeF8qORA8pr0D0FJ+dJ1Tt+4klwpJtDK8rfFVRQ4zhhgtKvMcplnE8YeEjeobt3DnBmipINJIR1hiHVF454LYh3wcRdvFQBA+L340PG3AL2VjtNsvEEpXJ43PgaT7nF2R4J3rP8vnlklHn/nSeRNcpUliu1jxAChiTED3FZxcxSi11iCVCkW102KWuGvNm+35NX3aaVzNvP5kyxNyhkoCkcyE7zwq17yeWCEU2P+kH9Iv+ovCAO9TwiJ5Ctr+xKvZALBGEbO6wfeKQihNzNeMxSRC3TfQUsl12qO1zYokgZNfnEQPKwAcZhEKiZ5A+A866WleSG3nRjbjDDjpsGCgZZ4V0JAdFyOaatLOHWMLfZ/NQJFQIG1wgftvfPyAheorPDm61oh0SS/iTzc/yRYfSeD2eAfQHkejp32HjqhgOKNFIKgrJivgvFYPS4XaRdegfkAjZ4Yzj1xOxhD+I+pEMKHQ2FAHZSEDiP32ip/hsPzw9WhNLeJqWB9lB7s54zM/dlFxHuhtYaxA9hWyrWnV+SCwRnOw6xx6mbxI+eV5EEj2F7DBGqtALsYQn2aS3zub7sFDk+RbPkwxRQMjGUjdaJpbwJJtckO0j2Z4sEj09e2sUhfyDSW5EEbL9Uw35agf7hIzZk0UhO5hhPDsilgjrszueGAHphGwnQuKzxWcrkkb0PAM4mWumgpC9l2STK0hPFoXsZhab+yhho5GwvblHH6IGyfp5RlBCdgibhOgjLIv+vT1u1Nli9+6p3NweN+pxo8q2gmMQsj2zfkJ2OcvVV9ufRTw2YtdSWb/R/e7N263+O7rcDm53jxvcvaH8uFGDW9pwhF7MbmiT3UUeB/C8U0MU8IxtsiNtbUvi7FR6crO6CCiPG3V8k6ET823BlCwG3erN2+3R5da5KpRS/HEAT3yEbE8BgzUP67M52fjkDgEDBo57XEynLh9dbkmkYVkMuNXoPuP1IWjBAyApv1InGaMNhGyjLC3sDE42STXgmzV5jlmz6CwcXabO2FkNV4Am+NCD29cfTCOj9UznKyVZvxYYNh8yONmWDs8W5pADg9hA+WzxSjYJsj0TI0K2GbJW9lpArDyevFD7caMaANd5CB2NkMih108qT1k3JH3KFaRWpulCA2RjR2i55nMSGaSCJRTxD7LFZzeNr+V4dZBNLst6/URnSFp329ph86wIXoEWxewfic+269Pcp3WQzb85i6FpMdrGCUTL8vNRX8j2US9k2zrIVkqRnAP+vdMiCbsggQfp5Ohyq4Uj/MELUfWnPgWip8TZPmJ6tSWW8E97wWjsbruVmARnxMk1Lo6XvNRkN6qEbE89qzcnZGPnWr3TLy2J2yb0NByTYKx5HBJqPfOehWxPiqo3J2T3+gmOiav3y+5Z8LfoNpYnOb55TWDzC0ey5CpP2dgzvgVbuefWG+7lcyM8bAgIN/dhZNk0ADdO8xnf947vkvowRJ4ZDBi7+4wqSNu9JLvuVxPxiLZJuHEyhP9+FZxGgtieYx3qVBBkeJ6d7CvZPJUB95yDvAg975ygM9xKpY9Wl30ahOQ9+CZ/iMoIn3+0YDwPBDzveUIZpPkek82f0QO4B8loOrvDFFZQisckYHjc7eNGBYxMcGANAzZiTc4eoaYW8FRQYUh1NNlvso3OFfgejieevs0I1nA8wXCD8/bkm7vqPJ/qmQ+Zzu54oKXdQR14tdjnfpMNzzzkWQuuhwiIpbTO65nnxcB/4+dOebBB9hxdbsmj2DA2fkdGr9VSg8eVH+YL40KNFWul1N6TDd8xsZit1098gpM8uLnzBpLgO5GD293xzY4H4vB1stF97pcm8ybi463z+vRfMHjxdK0cA9mgqeVUC867cnCSB3evnxS5YNXPM9ltbxl/Zax54h9o1q66sib2uXTh03jIBjVPTs89QTRahd+bxIhATF857LF3Xi11bQ8/IkuDGE0WG9kQedvPv0UcLRfL4lM15cPxpGDkM53d2RchJCuq+VTnUqm8CLksnd0TIdmgtRPEgghiy+WlLDTZujBIRsPxZDienJyeX1xdX1xdn5yen5yeD8cTyylFN698L9CYrNTd+ueLsBodL0dLNuh+cXVtIQky32Ut5FwzmqRqhWr8OUfF8zllJ75f9SMnGzIn9vN+XpbDbsiH+cKyZppkWkJqo6XiJxum7TR/teAbuvVH/OT0vEJI7YyOqi1aIyh7t/NQyNZ82ymsEHzrni+urouH0ZAxrHy4vMdm9LlikIwqLJW9w9cy4MMiG4SwB9/+fm65Wj/MFw/zxXR2B5ePF1fX09nddHb3MF8sV2vP1IQzpPZ/tsRCzL58dIhk6+BbezheqBac1G31mmKquofdSv8HSjZo7bwK9IkWgpvTnqWullEJPsjudHjQZIMZnCf31vm2Z6klpDYuJyH7RRY73/7Bt1F9505n+HFoWWqnYrqCkK2lSAv2zPfF1bXnxV/mYNYNZ0av2vMk1mNG9aGQTc1ZxE3Wzbc9/JCQmtrMtC1km1RR6QvHLJnvIF9IMx7YHhTBs+bGhrKTKCBkE0FeNx/mC3twEjb4dp4rJPx4tU2BkpDtEKkIcJ7BSZGQ2vMQjknG+LGQXciq9WW+JUtdyADlKwnZJTSzB8FlL+zsX+Xq9ZMDf/CjhGFMVYVskyrWff7Bd5EIxzoE+dCtgJDt1ojXcKKZd3FZpKG4ai54hT1CdgXRXpo4g+/heHJxdQ0P/U1nd/ZvZ0pGr7olTC2FbJMqZfbZgxP+FKFxjzx3WkbyQnWF7EIy2Ss5YwwjzbCzm4/L2ue7F58K2cHMVJbvat8QCzbc2DsSsgNbGPi23Jnnv+kaeATS3RcFhOy6QHiYL+CbkfCrIyen5/CFsbqOJ/1mFRCys3rIViwKCNmxWFLmkVVAyM7qIVuxKCBkx2JJmUdWASE7q4dsxaKAkB2LJWUeWQWE7KweshWLAkJ2LJaUeWQVELKzeshWLAoI2bFYUuaRVUDIzuohW7EoIGTHYkmZR1YBITurh2zFooCQHYslZR5ZBYTsrB6yFYsCQnYslpR5ZBUQsrN6yFYsCgjZsVhS5pFVQMjO6iFbsSggZMdiSZlHVgEhO6uHbMWigJAdiyXLzOP64+4fP6V/ZRq91D1b7Aa3u7NFlbYVDle5SSfIhnfdnpye6x/Cs8xnOruDms7K8LsIeb+pDj+3pw+0XK31+3bzCvxFXvByXt0JKXz4+HT57+nsp//i/c5R8V9Cw+8CJmPDP28JPesK8B5h4/SvP+7evN3+7WqLB1awPLpP2w5uhWyrYA/zBfwI2CAZAa/wGzTG3zLNq5z3yi94jxEHBUYEv8enR6c7t/9Sma4PLwKGykZ6lFIfPj71+gkh2z4q+BQfRSkFmgySEf/Diw3a4jq9fgKv1CEdCtlEkMCb8NPow/GE9Au/cUqIzKsM5jSuBPio10+M5BGyyRiWq7Xzx1H1W5owXrgfC9l5o8ojm6uEDwRl3hZetcMnImRz9YLtAXQKvlXIXhksyvEC8gbJyIiFP9nwO2Z5/dt99nA8GSQjvuQ4neCzjVMgxjC2heaDZIQrC9lYjcBlMAM3rfEweTbTleEUTHoDsiHM4Nx7kg2LTX15v16eA7b47OVqPUhG5Lyke9PzgoJl8eCaeSrB6Q6LI2Rj3QKXe/2klMPmEOABgfEIvkA24MIdpCfZunNL3GIhW0OMgdM78dT8fTasbXytaST7caNG97vjm/Tv6HJ7fJPmQB43ZCxpHX0FObh9qXl807lsSTu5EaDBDqtW1IKOrqOU4tEkho87SE+yIRSBAeT5VDvZgCwRweh38/rH089bFUopWPa4spHs45sUWfJ3dLl994SbvpBtrDy6N6yETOMGN9ohm3sRy5TBMNjlGCtDdgV/pMnWVscO0odsHYrA4fIiKyfZvKGF7OVqTf7wZPUcyU6lFMT0eL+R7HdPKbXgpB83CjbfvN0eXWaSg+CzYQGcLdL6UPPoMl0Vo/uuZAPbIbsgrHZusKmMp2xMNlTA8Y8P2aTnvLOKk2w+7DyyeS6SX1Ma28L7JolfMJJN9FRKPW4U8Irdtiab3KyB/UeXWx7A8J4b2NMm2diDWqYKy8BZmZ+yCX/kROFDNg5FYOT86PbciJ4vpDj1FYKRTrg+hp/f1v8TWLXP5vlsXrMg2UopiDo42cSRw3T4MtDTbL7QDtkEMvu0Czp4ThshWykFNMMiqUw2CUVg8EAkWX5FfDYQqS9w88jmHpqLBm31PUjw1mRI0CqP7NF9ekWoQ21dxu4ZfPPxjSHqgPq4Mh9kY3vaJFs7KvtsYRnYKwNt/GqM5HFxrq0y2QDQyek5/oM34pFBFiQbX0r6k63FhMkal4SRbH1RCFmRwW2aJNHxtO4WyDbeXYf6B002j3q1cMYCz2yQagAEOe1yn61P2cvVujLZcMt6OJ6QPx6QFCcbxg/PrvT6CZkd75lUgE2+KmAPWW9KKU72uycFEOPAQ0cjGFYL2cYejENtYGc7PhsCg7wbHHzalhMrVIbgkjQ0kq0dZDWyjaEIHFfTqYdRnGy91Dmd8JHR9eoD4QGQncZ7WJzss8Vrlhr3wAOMPLIfNy9rAzdvsdwa2RBj5D3MRBTRUYQxatRdkVZ5ZAM9PBeGm+elO/L61A9IYQdZimyYBUQ1eCSeZBvF4WQbo2cNK/fZxzc0dT24TdeG8cqSTKeZzdbI1oEBf5gJXjzHg+ZeP+GVNaZcLwuFABCJwnEPeWTz61TcioQNpcjW57GA0QiMjZ/xONk6GoGUNmSpLVeQb96mNylH97t3T+ps8RqRk2AGi9NwuU2y4faYfkQTwlb9FCsJmnFlXNOCmoVsOAmUJRtwN543wGwkIClLNozKSDbPZ8MeHKUYIxk4mZDbWJxspV5uLurECLALnpj77KPL1D3jym/e0ruVDaNMDtcy2TAaeGQeUg3T2Z0FneVqDZXhJYvOyjg2IDMn3zwgn8JCIiNZrtaWDoEhPKQPH5/+czMjz2fbOzGOSueweQGvf0vP0K2ezvXH3WSe/pFZP24UpERG9y/PgYBLxjdfHjepkwbffLZI3XY3v2LTCbKJvrIpCvgrIGT7ayg9dFEBIbuLVpEx+SsgZPtrKD10UQEhu4tWkTH5KyBk+2soPXRRASG7i1aRMfkrIGT7ayg9dFEBIbuLVpEx+SsgZPtrKD10UQEhu4tWkTH5KyBk+2soPXRRgf8D843f+PBhzAQAAAAASUVORK5CYII=;" parent="1" vertex="1">
                    <mxGeometry x="-485" y="-748.32" width="133" height="117.13" as="geometry"/>
                </mxCell>
                <mxCell id="64" value="" style="shape=image;verticalLabelPosition=bottom;labelBackgroundColor=default;verticalAlign=top;aspect=fixed;imageAspect=0;image=https://raw.githubusercontent.com/docker-library/docs/c350af05d3fac7b5c3f6327ac82fe4d990d8729c/docker/logo.png;" parent="1" vertex="1">
                    <mxGeometry x="-499.68" y="-645" width="162.37" height="145" as="geometry"/>
                </mxCell>
                <mxCell id="65" value="" style="shape=image;verticalLabelPosition=bottom;labelBackgroundColor=default;verticalAlign=top;aspect=fixed;imageAspect=0;image=https://www.ubt-uni.net/wp-content/uploads/2019/02/Cisco_Web.jpg;" parent="1" vertex="1">
                    <mxGeometry x="-337.30999999999995" y="-580" width="80" height="80" as="geometry"/>
                </mxCell>
                <mxCell id="66" value="" style="shape=image;verticalLabelPosition=bottom;labelBackgroundColor=default;verticalAlign=top;aspect=fixed;imageAspect=0;image=https://www.networkscreen.com.au/images/Boxshots/Juniper-vMX-Virtual-Router-Box.png;" parent="1" vertex="1">
                    <mxGeometry x="-257.30999999999995" y="-590" width="79.68" height="79.68" as="geometry"/>
                </mxCell>
                <mxCell id="67" value="" style="curved=1;endArrow=classic;html=1;rounded=0;edgeStyle=orthogonalEdgeStyle;entryX=1;entryY=0.5;entryDx=0;entryDy=0;" parent="1" edge="1" target="41">
                    <mxGeometry width="50" height="50" relative="1" as="geometry">
                        <mxPoint x="-539" y="-790" as="sourcePoint"/>
                        <mxPoint x="-604" y="-738" as="targetPoint"/>
                        <Array as="points">
                            <mxPoint x="-539" y="-615"/>
                        </Array>
                    </mxGeometry>
                </mxCell>
                <mxCell id="68" value="Topologies Cisco /&lt;br&gt;images reseau&lt;br&gt;Configuration Ansible&lt;br&gt;Tests auto (connectivité, routage, perf)" style="edgeLabel;html=1;align=center;verticalAlign=middle;resizable=0;points=[];" parent="67" vertex="1" connectable="0">
                    <mxGeometry x="0.2529" y="40" relative="1" as="geometry">
                        <mxPoint x="-210" y="-195" as="offset"/>
                    </mxGeometry>
                </mxCell>
                <mxCell id="69" value="" style="shape=image;verticalLabelPosition=bottom;labelBackgroundColor=default;verticalAlign=top;aspect=fixed;imageAspect=0;image=https://miro.medium.com/v2/resize:fit:700/0*OPChEtXu7YFri0zm.png;" parent="1" vertex="1">
                    <mxGeometry x="-583.31" y="-376" width="220" height="110" as="geometry"/>
                </mxCell>
                <mxCell id="70" value="" style="shape=image;verticalLabelPosition=bottom;labelBackgroundColor=default;verticalAlign=top;aspect=fixed;imageAspect=0;image=data:image/png,iVBORw0KGgoAAAANSUhEUgAAAQwAAAB2CAIAAACyIDrXAAAWLElEQVR4Ae2dD3BV1ZnAM7bjtsNO6VTHbp22s+PMKt6OuDtOR0qCKE1mbSHQ+AethZfFqYq16nbd1SQiDSIYWan0kVgUG5YUROLLewl/EhJMDJT83YARIVHAGkKA5a9ICMgj792dcPDLyXfOPe/cP++9e19O5s6b75577jnf+e73u9855557k6arP2UBZQGhBdKER+N4MByJY+GqaGUBBy2QOEjCEV2B4eCVU0UlzALxhYSAQf8mrGGqImUBpywQR0hoNmjZKdVVOcoCibFAvCChqWDlxLRN1aIs4IgFHIaE5cEoxRHtXVKIURsh3SV6KjWsWcBJSMAn5AVrSjt+lrzCScnpeHtVgaYs4Bgklr3HlLp2MlvW0IUn2rGDOtesBZyBxKYbmVVaMr9Nrbx+uqSVVLaYFnAAEgedKaa6bAYHax9tRbHGVClcC9iFJH6OxVWXJMav0tFZssDU6pCu67YgGZ0upVo92lZOWIdE+YqyALJAqoYdBcnQijK1xc8CKUCORUjiZ1NVcspbwHPYKEhUGEmOBTyEihVIUv5WpxqYYAu4HBgFSXLuown2Qq9U505aTEPiFXMrPT1tAVfRYg4ST9tdKe9RCyQdGAWJ6m55xgLJosUEJB69Dym1U8kCSeFEQeKZ+2gq+brNtiQYFVlIbLZKna4s4KwFEsmJFCTONk+VpizglAUSg4qCRHW3vG2BBHASGxKnoHeqnJ7ePn9xScxNUJ2/uCQvv8BfXCLIEwiGuFUEgqHmtnb2xOa2dlP5wxG96JUlZIPSoJBAMASJtABV0ImjXFaQcG5yzW3tWqy/zKwsI9cJBENwNtfdyYl5+QWQjRXy8gt6evvoKuhi2fyZWVkofziijx8/XtO0uXMfh3J6evsys7I0TcvMymJ18/lySclGCEE5o1CIKyoxIokLzd3c1p6ZlcXdwDt9vlwjzcHVNE3Lyy8wygaQ0BVB+ZqmoSoAEqP8LLcsJOGIDrcAlB/SUb1G+o+29KRB4i1D9/T2gROzt2HSFnA1khM5It1egISOAD29fXQJdC0ACZ0Yjug9vX2AJYoAXEjCEd1fXELUA4bpptFKKhlZIE6oiCIJ0sDlu+CLyE1ptcH1wdeNRiaQk4aEFAVOTFdkBAkdHFBdRpDQXJEqZJpGN3M0y/HgJEUgATdCjojchb5Dk1OMgokMJDQ/AkjgkGQkIfEHYh2cDoEFNUrt0hZQkHDG8XT/RNxfhwhAnBucjw4IYG4uJGRijSYN8nNL6+ntg3SWRqNIQsqEE4EWqEsJMS3gLCqGkSSmHi7JAB0nMSHhiE4mjuB+DB197okACfFR9AuFgBGQT6P8krNbUBoRIDxqmsYlGeVXu2ABBclwPAFC2Ps02IsI4MS0t0FsoRNJfjEkmVlZqF8H5SM8yC6bnzsFjHQGSLgzwiiz2kUWcJATfiRB9blzF0KBzI0WHK65rR028Gw2MgAk5OkhfQocos+CovzFJZC5ua09EAxBfhSyVHcr3n7lFCcehoT2e7G5IeBwb/Pk4R0qATybHp1DHlI1Hb4AEjYohSM6lEYfFUAC/JMQRNSmmQRNlCCwQBwhEdTqnkNACOr2cDUEHzWCRNM0VA6cwoWEPSqGBI7SE1wCSKB1zW3t7Iwwt40qUWABm7RwIomgMpccgrEE6sAYqUfY8Plye3r72I0NC/S9nwsJwAY1AgZ0rICjZM5A0zS6NCNIoHXALR1Y6BKgfCWILTDqIKH7TrDgjxXAanDX57pvOKJz/RvOIkshoXy4x6NVLVCIID/dPTMauEPrEP9QPkqHZkoKh4OhrWPHOrvVjRnTOWOGpALOZjt4KvqH2ohMmXY48V4kAfeF2zkr0O4IYcTIlHCfpv0vZi10FTRprDIkhZ2h4kYSiDks0sAnRBijFhmmD0Ybb7yxOi3N2a0ze3rPC783rDRuX5ENdETuWT7YdSQqWbVlTjAkkvUlMZu/uIReRMiVwd1hNSQ9GGCVhzLBNSEFle/z5eblF7ClQUUof2ZWltGy/LumTLlryhR6FXBefgE5nS2fPIYnR32+XNCTbYsgpes//8tZPGr/7hsfPTT7b/MXfDp/gaBexw/tPhTNezeS4x9ctFEqjIAC1jjxHiTQYCWYssDx7TucJeS9a6/dM/eJ/YUv7S98aV/hS+FB2Tu6KbVR5ouDeun2ITzItvPg8EMzlNNo1wInIyAxKlelp4AFWjIyHITk/X+8oeu55z9ZWARb+JK5m7oFkzYdiD5edgWPHP/gvIDFGs1yMgyJBaXVKV6xwL5XljhIyLZb/rlr0atdi/778u+rRL548VL8rHG8X19WF4UAQoS/7rceu0xxoiAxHa/j5wpxKvlM9yc1V13lFCQ70ifvLVq2t2jZnsu/IH/5ZThO+lfvjv5qxXAAIYT8bt2gzerkOVGQpD4kHb/IcYqQpp9N371kOXe7cP5Lm17Lnn7gWPTFyuERCB1JavdY7GuhWmRQuQIJOlPtpowFDq76H6cIafmlr3Ppn65sf7gsUL8XBhyGZF0b7l8BJHNXO0OI5D9/VJCkciQZOHm6/rvftQ/Jlm98s/Wxp3ctW7nrtZVGvwP95526s3QcjD7zDj+AEE4qd1kfjSAlVSRJZQDQxebu7n7kUfuE1F33D63PLehYvkq8nT87wNXBVGL/Rf2N90V45PgHc1cOXrjk5JWNyUkKRpJAMEQWqJO1JGStu9klT+wSL7MlEOdgyzFyGjantRqh/CObNtsnZOs/jWt5eXl7SVlbSZn4d+DMOagaBLZRcIgV3ttzybf8aHbRiA26WCCsbY2yxdpJGS2Q9PT2kcfVRqtCyEeAAsGQpOex5UieSF97WHAFpcFSADobkWFBCmTmvs/InmiUUnn99TYhWXrNtatfKGpd8XbrinXU79uUPJx+joGEbT672poof/hzfUl15Gcv7Ia2gwBsEOG+4sH6pl1w1ClBzMlQJDGyslfSYdmspMnYT8uxLWWLSjwk7Ne9WD2NUhrmzLFJSP53vqNp2h0TJja/WS6z9Z/uR8qwNuRCUvlBdGbJ0AyvDCRvbYvAGlBu+ZYTBZx4GxL45KEF03DXR8FlZgtMCiSapon1BIVp4WRru01CfnvddWCB53792x1/Dsbczo6EBJZjQjlEoFdndh2JzgsMPwBhIbnltgwUSQ5/Pvz9PlSyzd2UhcToSkjai7xhQrsXyGwJyYIELTcGDQVChb2lvrnXX083f9JP0t96cdn2VVXi7czJL0Alwc0eIClrwjO8MSFZvnVo5ldQOK22WVkwHezhSGK2l8VaTeB/bOZkQYJeXAFHNBJ2Fi6wHEaCV12V88Mfsm2fcXd2Y9nmxrJqwe+Zk2dBJXZ8BWX6i0taPo0+uZYzhRUTkn3HhoYG8YPEiBOvQgIvgYD1iYDGG+Q77T5fLveyCfweFYteKgRvEAvsyNXUwJ3WQXJt/NlPP9v0ta9Zg2TdmL/PvOEGulJaXvzswoa1tQ1rao1+T5+4EknEr+LkPlOMelCwK4akaPOVB4hkkiYvv8BoY/sX5IUFo/wknVxKbqfLq5CwYYR9qwl5MHlFBC48xH2UjexCNhAERHFL4L6JZRkSQdCja9+UbnGp7xbt1gen/Cs0lhUmTZxUvqK8fl19/TtfbSPlU5chiXmbv8O3HKhAghiSzl7ZB4isDpLWS7VIwt4tZAa4MFMscFZ3QsKdF6LxCEf03jVrrcWQmolTtpY3Tv/5DJYNOuXfHnq4bn3j1vLGunLmd33jiWNDkYS9LnQJQ9NlliD5fdDEckY7kHA5SUOG9souMr2mafKay3Rd2PKTG0mM/mkJtPrC2XMVY8ZYgGTL1Jm1FU11FU3ZP/8F22qU8vrS0tqKJpK/tmIHLZ849gUb3tHpliFpOSAbRriDFvlIwofEi89JuAMSC04MHsYK7NW1UL6DYxKij+Bi198/0wIhNbN/UxNqrQm1bgm1Zk/NYVuNUjLS74D8RCDn1oRaP/zwY5SZu2shkjxbbm45o/ORREHCEhKO6OwFTjwk3Bszdyj1f3VbLRBysHTVjm1d1Rs6yJY97R7U6tzZj6EUTdNyZz8Gp3wl7Kze0PHLh2ahzLfenjUhJx8lWoCkvttEGLEfSdhg4tWBOzI9eThtwY+5hLgEkua2draLz12rUvmDH5iCZOvYsUeqa8IR/fjJc5s2fXB565w27V5k1cLCP/p8c1FiRsZkv//tTZs6yVnkt7Dwjyibpml357Xah+SJv5gYjZCraTOSpA4k3Cldy58RYVFhL7kFAm12t8iiPVYTNOvQ8Ki5pb6NN910aucH0OTu/cc31uzZWLNnWvZ9qK7CF4vL1jakZ9yJ0tMz7iSnkN+ytQ0og6ZpE3Lyc/yD9iHZ2GkujDgSSRAnXo0k3K4IuVQ+X678QkbwFSSwVz0pkHDnkem1Kqd3dZqKIRt/9KP+w0dRY5v+t7eqrntq9v2o1fMXvl5V1z1/4esoXdO0p/5jQVVtd1Vdd1Vt99Tp+MRbb88i07s2IRl/WwZSVWbXfiQhtcAzkyFIvDgsgf83wl4/SPH5csk33mUsi/JAISAkCxL6W8CgDIzgK26+WR6Sxd/6Fnei/PP+ixsbPp06fSaUT4T5i96orD9Q+d7+WXOeRIfSJ9312opQZf2B11YM/zdjyHN3XqsjkPx4goLE3rf90MNBuEJcIS+/gHx8GsFgtMsWkixI6P8OR2uVl1/wwaLF8oSQVb1cSMIR/UDf2akzHqDL1zRt3uKVofc/Czb8rTTQmj7pLnR06owHQu9/9uOJP0XppKPlCCTp6QoSe5CQfwTHHZygy0bv+otLZNydPoXIMmch5OyPSaBAtnv5kxtvrPr61yUhgVW9RpCEI3rOfQ+hVs97pTS4/VDFtkPB7YfmvVKKjmqa9i8TMlEidLQcgSQjI5mQwMjEw90t4kDcKSB05dBuzAUsLpndorFkO10Lx46VJIRe1SuAZNZsHzLU80tWBXYcge1Xv/4dysDuQkcrNSAhnHgeEhoVU1GF+8AB7tzs5addFrKJBQcjCep0Pfj978sQsuHqq9GqXgEk7HTz86+Wvdty4t2W4+R35caPJt4xhbUMpNAdrRSExKNjd9ZHSWCRpEXACVx4EJIOCfyf4VtuvnnN1VfHhKTxppuempYN+hPBFCT5S9eUt51e33aa/JZuO3P/s+WoQNhFHS0FiQfe+BUvkodLa+T6kAEEo5wsqJDCDiTQIw7IyZ2sY2skna68a66JSUjL5Mn9h4+ywcEcJK+tW99xlmwLNly49/Jnqm/LxL0yYiLU0VKQeAAS2v8CwZBRbDH6R4RsfoF70XXRMguJUXWSkIQjeld5ICYhO2c+QNSwC8my9e/sGijedv7R1ZeI0+f4B6ctOgg3DhBuy/RBBlqw+Zwk6QP3EWOSlOlu0T6KZO6UMTxwQJkdgYT1UUEHj62RjSRDj5MnTBBDsuepp6EtrAIC1NnMef5AfuUwHuD9P32iAvAgAhxCgoLEY/EE+vToAnN9keMx+QXgfJICW4hNSPYtfllMyL7FL9O6sQqYgmT6M0Hk9LBLd7q4HS2SU0HiPUi4vRru6yXsO6jclYW0RyKZu56fWxc5MWYk+fyjvWJCekpXIR1sQvJ0kSEk0Oky6milJiSe63GR9X/ILWLusn7DdVx2/Y/Mu4F07eyARPxmWExI2qdlG0FS99WqXloB7nuCpiJJIBg6dja6uin64OvDH/6BYEI6XbDLFVItkngOEuLugquOPIbsor6WpmlcSLgxR/5zENwwYjT+IYqJIelZ+ZYRIWhVL91q9o4gMJcg85kL+rrWSO6bGJVpiw5y2YBEU5DMWYq/4Oi6gbu3VjrS3SH0hRTaS5DMjQ8oD+zSVQBaMnWxT8fJ6QIH5TIJg6WBYyfeM5j2JVO9oDMSBH6PcsqEnQuDenBn9JFVGBVAghVMQfJm1UdgZyK4FBJPxBP2STbpC4FXsR6AnljDxRDc3blExXzXXHAWVytIFESSzjkPc8MITPVCIUhwFhIofPOHkSfXcD6cZQeSR1ZFOnfvgevidkhczomRFxKzkpdJ6AW/Pb19gWCIdReSXzDdFI7o3GACFZF1+D29fc1t7eQ79ka1CDp14HlGkByprOISQk/1QiFIYPURRDNTmcMRvb4r+sw7MaKKfCSp6IgqSBybCjPqzBDfNfUrCCPgbazvmqqCZBY8QxRURALjtnHjWEjQVC8UggRTfm8qM1S0Y3/0+QrDqCIJyaw3Bs9d1BUkjkFCLg/3yaAp95VZC0w6aTY5ESxFAVczGpN0PfscSwg71UuXQ8um/N5UZrqWcERv/4z/zw0lIflL89D3UDwGiScG8RYWyQNFkoQQV7Dz7Xpxd452NRbF7hDuaG399rfJBxzoEwWyKb83lZlb6YeH9KLNI6KKDCT3LB883j/0IrsnIXH54IRcJwuoyHR+WCeI+U+CgEAimOKQG0kab7+dDiPbxo2jP+DAasimmPJ7U5nZuiDl46NR+J/rMpC82XjlUw8sJOInS1AjEthRq0y/GhUCu7quX3mfhIQOo184wbWC5JpfmQlccRv9xSWsMyE8yKvC4nLYoyiSPD7yH4K2Tr6T/YADWwhKYVV1cOCO6kK7PSf1PzVEZCDpPXWlK64gcXhMgi4Jvdvc1k6mm+B/Jtr/eApdPpHpKvzFJeQfNYrnoNlCjFK++GT/FurV3F0PPGiU0+XpR85ES/8avf/yP7JiJ4hz/IPL6kZ8nfH8xUtoS3oDUyeSJN2UzirQcc+90NHa+/S/O1t44ks7NaCvbYnMeoMzX9x91PRntRKsvywknhicJNh28auud3UZELLv5aL4VZTgkgfCeqAj+vCfh1FZtHFEGEmwPpLVmYAEhiuSRats1iwwcPpMw/e+RyCRn+q1VleyztrQGflN2dAk2K7exHXCLTfWCiQqqlg2t8yJux+bW52WZnaqV6Zkt+Wp2+v2jhaxmILEXXeyo9U11WlpFqZ63QZAKumjIHEXJNvHj7c21ZtKTumqtpBRhtRzEhiQ0IKrGpMCynw87wXvTvWmgP25TbALiRqccM1qLfFUe0cKTPVaa7trz4KQYD2SkCJc20JvKZZKU73esryRtkCIxTEJfb6KJ0ZWVunetQDycLuRBIrzrkWU5soCtAXApUFwDBJSIl2ZkpUFPGcBAIMWHIZEoeI5t1AKgwVoMGg5LpCogQrYXQlesQBNBZLjBQlU4xUbKT1HuQXAY1kh7pCoqDLKnc8rzWfZgJREQEIq84qxlJ6j0wKABCskDhKoe3ReA9VqN1sAnJMrJAES0MPNVlO6jR4LgEMaCcmEhNZp9FwS1VK3WYD2Q67sFkiQcm6zo9InhS2AfI/ddSkkrKIpfJFU05JoAdbT2BTPQEKrnkSbqqpTzAK0XxnJnoSE25gUu3iqOfG2ANeLuImpAwm3efE2tCrfoxbgeotRYopDYtRsSPfoNVZq27EAXH1JYbRDwprJjvXVuS63AHu5ZVIUJDJW4udxuUMkRj2+aS6nJkYBmVoESsocUpDIWMl6HplL6P481ttvfGYCWm1cubkjChJz9kpk7gS4EakikY3yYl3/D6UCbN8To9gaAAAAAElFTkSuQmCC;" parent="1" vertex="1">
                    <mxGeometry x="-607.31" y="-255" width="268" height="118" as="geometry"/>
                </mxCell>
                <mxCell id="72" value="" style="curved=1;endArrow=classic;html=1;rounded=0;edgeStyle=orthogonalEdgeStyle;entryX=0.554;entryY=0;entryDx=0;entryDy=0;entryPerimeter=0;" parent="1" source="62" target="56" edge="1">
                    <mxGeometry width="50" height="50" relative="1" as="geometry">
                        <mxPoint x="-299" y="-440" as="sourcePoint"/>
                        <mxPoint x="-133" y="-398" as="targetPoint"/>
                        <Array as="points">
                            <mxPoint x="-309" y="-430"/>
                            <mxPoint x="-459" y="-430"/>
                        </Array>
                    </mxGeometry>
                </mxCell>
                <mxCell id="73" value="" style="curved=1;endArrow=classic;html=1;rounded=0;edgeStyle=orthogonalEdgeStyle;exitX=1;exitY=1;exitDx=0;exitDy=0;entryX=0.48;entryY=-0.005;entryDx=0;entryDy=0;entryPerimeter=0;" parent="1" source="40" target="56" edge="1">
                    <mxGeometry width="50" height="50" relative="1" as="geometry">
                        <mxPoint x="-299" y="-450" as="sourcePoint"/>
                        <mxPoint x="-459" y="-400" as="targetPoint"/>
                        <Array as="points">
                            <mxPoint x="-589" y="-460"/>
                            <mxPoint x="-589" y="-420"/>
                            <mxPoint x="-480" y="-420"/>
                        </Array>
                    </mxGeometry>
                </mxCell>
                <mxCell id="76" value="" style="endArrow=classic;html=1;entryX=1;entryY=0.5;entryDx=0;entryDy=0;exitX=0.5;exitY=0;exitDx=0;exitDy=0;" edge="1" parent="1" source="61" target="24">
                    <mxGeometry width="50" height="50" relative="1" as="geometry">
                        <mxPoint x="-200" y="-1020" as="sourcePoint"/>
                        <mxPoint x="-150" y="-1070" as="targetPoint"/>
                        <Array as="points">
                            <mxPoint x="-290" y="-1505"/>
                        </Array>
                    </mxGeometry>
                </mxCell>
                <mxCell id="77" value="" style="endArrow=classic;html=1;entryX=0;entryY=0.5;entryDx=0;entryDy=0;exitX=0.275;exitY=-0.009;exitDx=0;exitDy=0;exitPerimeter=0;" edge="1" parent="1" source="41" target="24">
                    <mxGeometry width="50" height="50" relative="1" as="geometry">
                        <mxPoint x="-818" y="-707" as="sourcePoint"/>
                        <mxPoint x="-939" y="-1430" as="targetPoint"/>
                        <Array as="points">
                            <mxPoint x="-840" y="-1505"/>
                        </Array>
                    </mxGeometry>
                </mxCell>
                <mxCell id="82" value="" style="curved=1;endArrow=classic;html=1;rounded=0;edgeStyle=orthogonalEdgeStyle;" edge="1" parent="1" target="62">
                    <mxGeometry width="50" height="50" relative="1" as="geometry">
                        <mxPoint x="-540" y="-790" as="sourcePoint"/>
                        <mxPoint x="-569" y="-605" as="targetPoint"/>
                        <Array as="points">
                            <mxPoint x="-540" y="-605"/>
                        </Array>
                    </mxGeometry>
                </mxCell>
                <mxCell id="83" value="Topologies Cisco /&lt;br&gt;images reseau&lt;br&gt;Configuration Ansible&lt;br&gt;Tests auto (connectivité, routage, perf)" style="edgeLabel;html=1;align=center;verticalAlign=middle;resizable=0;points=[];" vertex="1" connectable="0" parent="82">
                    <mxGeometry x="0.2529" y="40" relative="1" as="geometry">
                        <mxPoint x="-210" y="-195" as="offset"/>
                    </mxGeometry>
                </mxCell>
            </root>
        </mxGraphModel>
    </diagram>
</mxfile>